<svg width="16" height="15" viewBox="0 0 16 15" fill="none" xmlns="http://www.w3.org/2000/svg">
<path d="M4.98899 4.43694C7.35241 4.43694 8.90584 5.16543 9.6493 6.6224C10.0797 5.80562 10.7801 5.19026 11.7505 4.77635C12.6114 4.41763 13.6131 4.23827 14.7557 4.23827H16V9.17211H0L0 8.74164C0 7.28466 0.391294 6.21125 1.17388 5.5214C1.9956 4.79843 3.2673 4.43694 4.98899 4.43694ZM0.0234776 15L0.0234776 10.5463H16V15L0.0234776 15Z" fill="#03F8F8"/>
<path d="M4.98899 0.198174C7.35241 0.198174 8.90584 0.926661 9.6493 2.38363C10.0797 1.56685 10.7801 0.951495 11.7505 0.537583C12.6114 0.178858 13.6131 -0.000504212 14.7557 -0.000504212H16V4.93334L0 4.93334L0 4.50287C0 3.04589 0.391294 1.97248 1.17388 1.28263C1.9956 0.559658 3.2673 0.198174 4.98899 0.198174ZM0.0234776 10.7612L0.0234776 6.30753L16 6.30753V10.7612L0.0234776 10.7612Z" fill="#CF22BA"/>
</svg>
